<svg width="140" height="86" viewBox="0 0 140 86" fill="none" xmlns="http://www.w3.org/2000/svg">
<g filter="url(#filter0_d_1_2283)">
<path d="M41.2253 20.6023L47.6258 33.2794L61.5938 31.037L51.5816 41.1143L57.9822 53.7913L45.3937 47.3423L35.3816 57.4196L37.6137 43.3566L25.0252 36.9077L38.9932 34.6653L41.2253 20.6023Z" fill="url(#paint0_linear_1_2283)"/>
<path d="M43.2888 33.8395L45.3106 37.8439L49.7227 37.1356L46.5601 40.3188L48.5819 44.3231L44.6055 42.2861L41.4429 45.4692L42.148 41.0271L38.1716 38.99L42.5837 38.2817L43.2888 33.8395Z" fill="#13334E"/>
</g>
<path d="M120.775 21.2151L114.374 33.8922L100.406 31.6498L110.418 41.727L104.018 54.4041L116.606 47.9551L126.618 58.0324L124.386 43.9694L136.975 37.5204L123.007 35.2781L120.775 21.2151Z" fill="url(#paint1_linear_1_2283)"/>
<path d="M118.711 34.4523L116.689 38.4567L112.277 37.7484L115.44 40.9316L113.418 44.9359L117.394 42.8989L120.557 46.082L119.852 41.6399L123.828 39.6028L119.416 38.8945L118.711 34.4523Z" fill="#13334E"/>
<path d="M81.5425 12L86.9989 27.2455H104.656L90.3711 36.6678L95.8275 51.9134L81.5425 42.4911L67.2575 51.9134L72.7139 36.6678L58.4289 27.2455H76.0861L81.5425 12Z" fill="url(#paint2_linear_1_2283)"/>
<path d="M81.5424 27.0942L83.266 31.9099H88.8435L84.3312 34.8862L86.0547 39.7019L81.5424 36.7256L77.0301 39.7019L78.7537 34.8862L74.2414 31.9099H79.8189L81.5424 27.0942Z" fill="#13334E"/>
<defs>
<filter id="filter0_d_1_2283" x="0.725208" y="0.302296" width="85.1686" height="85.4174" filterUnits="userSpaceOnUse" color-interpolation-filters="sRGB">
<feFlood flood-opacity="0" result="BackgroundImageFix"/>
<feColorMatrix in="SourceAlpha" type="matrix" values="0 0 0 0 0 0 0 0 0 0 0 0 0 0 0 0 0 0 127 0" result="hardAlpha"/>
<feOffset dy="4"/>
<feGaussianBlur stdDeviation="12.15"/>
<feComposite in2="hardAlpha" operator="out"/>
<feColorMatrix type="matrix" values="0 0 0 0 0.9375 0 0 0 0 0.730769 0 0 0 0 0.16226 0 0 0 0.8 0"/>
<feBlend mode="normal" in2="BackgroundImageFix" result="effect1_dropShadow_1_2283"/>
<feBlend mode="normal" in="SourceGraphic" in2="effect1_dropShadow_1_2283" result="shape"/>
</filter>
<linearGradient id="paint0_linear_1_2283" x1="41.2253" y1="20.6023" x2="47.4333" y2="59.2727" gradientUnits="userSpaceOnUse">
<stop stop-color="#FFFFFA"/>
<stop offset="1" stop-color="#FFB800"/>
</linearGradient>
<linearGradient id="paint1_linear_1_2283" x1="120.775" y1="21.2151" x2="114.567" y2="59.8855" gradientUnits="userSpaceOnUse">
<stop stop-color="white"/>
<stop offset="1" stop-color="#031C31"/>
</linearGradient>
<linearGradient id="paint2_linear_1_2283" x1="81.5425" y1="12" x2="81.5425" y2="56.1271" gradientUnits="userSpaceOnUse">
<stop stop-color="#FFFEE3"/>
<stop offset="1" stop-color="#13334E"/>
</linearGradient>
</defs>
</svg>
