<svg width="162" height="96" viewBox="0 0 162 96" fill="none" xmlns="http://www.w3.org/2000/svg">
<g filter="url(#filter0_d_1_2287)">
<path d="M41.2253 29.6023L47.6258 42.2794L61.5938 40.037L51.5816 50.1143L57.9822 62.7913L45.3937 56.3423L35.3816 66.4196L37.6137 52.3566L25.0252 45.9077L38.9932 43.6653L41.2253 29.6023Z" fill="url(#paint0_linear_1_2287)"/>
<path d="M43.2888 42.8395L45.3106 46.8439L49.7227 46.1356L46.5601 49.3188L48.5819 53.3231L44.6055 51.2861L41.4429 54.4692L42.148 50.0271L38.1716 47.99L42.5837 47.2817L43.2888 42.8395Z" fill="#13334E"/>
</g>
<g filter="url(#filter1_d_1_2287)">
<path d="M120.775 30.2151L114.374 42.8922L100.406 40.6498L110.418 50.727L104.018 63.4041L116.606 56.9551L126.618 67.0324L124.386 52.9694L136.975 46.5204L123.007 44.2781L120.775 30.2151Z" fill="url(#paint1_linear_1_2287)"/>
<path d="M118.711 43.4523L116.689 47.4567L112.277 46.7484L115.44 49.9316L113.418 53.9359L117.394 51.8989L120.557 55.082L119.852 50.6399L123.828 48.6028L119.416 47.8945L118.711 43.4523Z" fill="#13334E"/>
</g>
<g filter="url(#filter2_d_1_2287)">
<path d="M81.5425 21L86.9989 36.2455H104.656L90.3711 45.6678L95.8275 60.9134L81.5425 51.4911L67.2575 60.9134L72.7139 45.6678L58.4289 36.2455H76.0861L81.5425 21Z" fill="url(#paint2_linear_1_2287)"/>
<path d="M81.5424 36.0942L83.266 40.9099H88.8435L84.3312 43.8862L86.0547 48.7019L81.5424 45.7256L77.0301 48.7019L78.7537 43.8862L74.2414 40.9099H79.8189L81.5424 36.0942Z" fill="#13334E"/>
</g>
<defs>
<filter id="filter0_d_1_2287" x="0.725208" y="9.3023" width="85.1686" height="85.4174" filterUnits="userSpaceOnUse" color-interpolation-filters="sRGB">
<feFlood flood-opacity="0" result="BackgroundImageFix"/>
<feColorMatrix in="SourceAlpha" type="matrix" values="0 0 0 0 0 0 0 0 0 0 0 0 0 0 0 0 0 0 127 0" result="hardAlpha"/>
<feOffset dy="4"/>
<feGaussianBlur stdDeviation="12.15"/>
<feComposite in2="hardAlpha" operator="out"/>
<feColorMatrix type="matrix" values="0 0 0 0 0.9375 0 0 0 0 0.730769 0 0 0 0 0.16226 0 0 0 0.8 0"/>
<feBlend mode="normal" in2="BackgroundImageFix" result="effect1_dropShadow_1_2287"/>
<feBlend mode="normal" in="SourceGraphic" in2="effect1_dropShadow_1_2287" result="shape"/>
</filter>
<filter id="filter1_d_1_2287" x="76.1062" y="9.91509" width="85.1686" height="85.4174" filterUnits="userSpaceOnUse" color-interpolation-filters="sRGB">
<feFlood flood-opacity="0" result="BackgroundImageFix"/>
<feColorMatrix in="SourceAlpha" type="matrix" values="0 0 0 0 0 0 0 0 0 0 0 0 0 0 0 0 0 0 127 0" result="hardAlpha"/>
<feOffset dy="4"/>
<feGaussianBlur stdDeviation="12.15"/>
<feComposite in2="hardAlpha" operator="out"/>
<feColorMatrix type="matrix" values="0 0 0 0 0.9375 0 0 0 0 0.730769 0 0 0 0 0.16226 0 0 0 0.8 0"/>
<feBlend mode="normal" in2="BackgroundImageFix" result="effect1_dropShadow_1_2287"/>
<feBlend mode="normal" in="SourceGraphic" in2="effect1_dropShadow_1_2287" result="shape"/>
</filter>
<filter id="filter2_d_1_2287" x="34.1289" y="0.700001" width="94.8272" height="88.5133" filterUnits="userSpaceOnUse" color-interpolation-filters="sRGB">
<feFlood flood-opacity="0" result="BackgroundImageFix"/>
<feColorMatrix in="SourceAlpha" type="matrix" values="0 0 0 0 0 0 0 0 0 0 0 0 0 0 0 0 0 0 127 0" result="hardAlpha"/>
<feOffset dy="4"/>
<feGaussianBlur stdDeviation="12.15"/>
<feComposite in2="hardAlpha" operator="out"/>
<feColorMatrix type="matrix" values="0 0 0 0 0.9375 0 0 0 0 0.730769 0 0 0 0 0.16226 0 0 0 0.8 0"/>
<feBlend mode="normal" in2="BackgroundImageFix" result="effect1_dropShadow_1_2287"/>
<feBlend mode="normal" in="SourceGraphic" in2="effect1_dropShadow_1_2287" result="shape"/>
</filter>
<linearGradient id="paint0_linear_1_2287" x1="41.2253" y1="29.6023" x2="47.4333" y2="68.2727" gradientUnits="userSpaceOnUse">
<stop stop-color="#FFFEE3"/>
<stop offset="1" stop-color="#FFB800"/>
</linearGradient>
<linearGradient id="paint1_linear_1_2287" x1="120.775" y1="30.2151" x2="114.567" y2="68.8855" gradientUnits="userSpaceOnUse">
<stop stop-color="#BEBEBE"/>
<stop offset="1" stop-color="#FFB800"/>
</linearGradient>
<linearGradient id="paint2_linear_1_2287" x1="81.5425" y1="21" x2="81.5425" y2="65.1271" gradientUnits="userSpaceOnUse">
<stop stop-color="#FFFEE3"/>
<stop offset="1" stop-color="#FFB800"/>
</linearGradient>
</defs>
</svg>
