<svg width="241" height="107" viewBox="0 0 241 107" fill="none" xmlns="http://www.w3.org/2000/svg">
<g clip-path="url(#clip0_65_928)">
<g filter="url(#filter0_d_65_928)">
<path d="M39.4001 18.1921L53.3243 42.825L81.0353 39.8477L62.4178 61.3238L73.4592 87.4783L48.0287 76.1183L27.1417 95.26L30.0423 66.7631L6.09195 52.4388L33.3151 46.1867L39.4001 18.1921Z" fill="url(#paint0_linear_65_928)"/>
<path d="M43.5222 45.8657L47.9205 53.6467L56.6738 52.7062L50.793 59.49L54.2807 67.7516L46.2478 64.1632L39.6501 70.2096L40.5663 61.2081L33.001 56.6834L41.6001 54.7085L43.5222 45.8657Z" fill="#13334E"/>
</g>
<g filter="url(#filter1_d_65_928)">
<path d="M201.6 19.478L187.676 44.1109L159.965 41.1336L178.582 62.6097L167.541 88.7642L192.971 77.4042L213.858 96.5459L210.958 68.049L234.908 53.7246L207.685 47.4726L201.6 19.478Z" fill="url(#paint1_linear_65_928)"/>
<path d="M197.478 47.1516L193.079 54.9326L184.326 53.9921L190.207 60.7759L186.719 69.0375L194.752 65.4491L201.35 71.4955L200.434 62.494L207.999 57.9693L199.4 55.9944L197.478 47.1516Z" fill="#13334E"/>
</g>
<g filter="url(#filter2_d_65_928)">
<path d="M121.608 0L134.212 30.112L168.815 31.9858L142.001 52.4697L150.783 83.7398L121.608 66.2876L92.4328 83.7398L101.215 52.4697L74.4015 31.9858L109.004 30.112L121.608 0Z" fill="url(#paint2_linear_65_928)"/>
<path d="M121.608 31.6683L125.589 41.1799L136.519 41.7718L128.05 48.2422L130.824 58.1197L121.608 52.6069L112.392 58.1197L115.166 48.2422L106.697 41.7718L117.627 41.1799L121.608 31.6683Z" fill="#13334E"/>
</g>
</g>
<defs>
<filter id="filter0_d_65_928" x="-12.1082" y="1.99208" width="111.343" height="113.468" filterUnits="userSpaceOnUse" color-interpolation-filters="sRGB">
<feFlood flood-opacity="0" result="BackgroundImageFix"/>
<feColorMatrix in="SourceAlpha" type="matrix" values="0 0 0 0 0 0 0 0 0 0 0 0 0 0 0 0 0 0 127 0" result="hardAlpha"/>
<feOffset dy="2"/>
<feGaussianBlur stdDeviation="9.1"/>
<feComposite in2="hardAlpha" operator="out"/>
<feColorMatrix type="matrix" values="0 0 0 0 1 0 0 0 0 0.815417 0 0 0 0 0.148077 0 0 0 0.9 0"/>
<feBlend mode="normal" in2="BackgroundImageFix" result="effect1_dropShadow_65_928"/>
<feBlend mode="normal" in="SourceGraphic" in2="effect1_dropShadow_65_928" result="shape"/>
</filter>
<filter id="filter1_d_65_928" x="141.765" y="3.27797" width="111.343" height="113.468" filterUnits="userSpaceOnUse" color-interpolation-filters="sRGB">
<feFlood flood-opacity="0" result="BackgroundImageFix"/>
<feColorMatrix in="SourceAlpha" type="matrix" values="0 0 0 0 0 0 0 0 0 0 0 0 0 0 0 0 0 0 127 0" result="hardAlpha"/>
<feOffset dy="2"/>
<feGaussianBlur stdDeviation="9.1"/>
<feComposite in2="hardAlpha" operator="out"/>
<feColorMatrix type="matrix" values="0 0 0 0 0.175 0 0 0 0 0.175 0 0 0 0 0.175 0 0 0 0.9 0"/>
<feBlend mode="normal" in2="BackgroundImageFix" result="effect1_dropShadow_65_928"/>
<feBlend mode="normal" in="SourceGraphic" in2="effect1_dropShadow_65_928" result="shape"/>
</filter>
<filter id="filter2_d_65_928" x="56.2014" y="-16.2" width="130.813" height="120.14" filterUnits="userSpaceOnUse" color-interpolation-filters="sRGB">
<feFlood flood-opacity="0" result="BackgroundImageFix"/>
<feColorMatrix in="SourceAlpha" type="matrix" values="0 0 0 0 0 0 0 0 0 0 0 0 0 0 0 0 0 0 127 0" result="hardAlpha"/>
<feOffset dy="2"/>
<feGaussianBlur stdDeviation="9.1"/>
<feComposite in2="hardAlpha" operator="out"/>
<feColorMatrix type="matrix" values="0 0 0 0 0.175 0 0 0 0 0.175 0 0 0 0 0.175 0 0 0 0.9 0"/>
<feBlend mode="normal" in2="BackgroundImageFix" result="effect1_dropShadow_65_928"/>
<feBlend mode="normal" in="SourceGraphic" in2="effect1_dropShadow_65_928" result="shape"/>
</filter>
<linearGradient id="paint0_linear_65_928" x1="39.4001" y1="18.1921" x2="52.95" y2="98.8429" gradientUnits="userSpaceOnUse">
<stop stop-color="white"/>
<stop offset="1" stop-color="#E3A400"/>
</linearGradient>
<linearGradient id="paint1_linear_65_928" x1="201.6" y1="19.478" x2="188.05" y2="100.129" gradientUnits="userSpaceOnUse">
<stop stop-color="white"/>
<stop offset="1" stop-color="#13334E"/>
</linearGradient>
<linearGradient id="paint2_linear_65_928" x1="121.608" y1="0" x2="121.608" y2="92.5804" gradientUnits="userSpaceOnUse">
<stop stop-color="white"/>
<stop offset="1" stop-color="#13334E"/>
</linearGradient>
<clipPath id="clip0_65_928">
<rect width="241" height="107" fill="white"/>
</clipPath>
</defs>
</svg>
